<svg xmlns="http://www.w3.org/2000/svg" xmlns:xlink="http://www.w3.org/1999/xlink" version="1.1" x="0px" y="0px" viewBox="0 0 35 43.75" enable-background="new 0 0 35 35" xml:space="preserve"><g><path d="M30.4745445,3.1578436c-2.8255615-2.2327271-6.944458-2.2078247-9.7420044,0.0601807   c-1.5331421,1.242981-2.4719849,2.9051514-2.8046875,4.6693726c-0.0177612,0.0941162,0.0137329,0.1921387,0.0811768,0.2598877   l8.8660889,8.9076548c0.0673218,0.067627,0.1646118,0.0991821,0.2581177,0.0813599   c1.4932861-0.2841797,2.913208-1.008728,4.0654907-2.1663828C34.4965782,11.6565619,34.2453575,6.1375799,30.4745445,3.1578436z"/><path d="M1.8288546,33.1696243c0.4384155,0.4404907,1.149353,0.4404907,1.5877686,0l5.4588623-5.484375l1.3325195,1.3387451   c0.2064209,0.2073975,0.5239868,0.2233276,0.7462769,0.0478516l13.3295279-10.5365601   c0.2698975-0.2073975,0.2858276-0.6062012,0.0476685-0.845459l-7.0657349-7.0988169   c-0.2381592-0.2393188-0.6271362-0.215332-0.8335571,0.0557861L6.0400972,24.1345901   c-0.1746826,0.2233276-0.1588135,0.5424194,0.0396729,0.7418213l1.2078857,1.213562l-5.4588013,5.484436   C1.390378,32.0149002,1.390378,32.7291946,1.8288546,33.1696243z M14.6373873,17.4961014   c0.78479-0.78479,2.0504141-0.77771,2.828124,0c0.78479,0.78479,0.78479,2.043335,0,2.828125   c-0.77771,0.77771-2.043334,0.78479-2.828124,0C13.8596773,19.5465164,13.8596773,18.2738113,14.6373873,17.4961014z"/></g><text x="0" y="50" fill="#000000" font-size="5px" font-weight="bold" font-family="'Helvetica Neue', Helvetica, Arial-Unicode, Arial, Sans-serif">Created by Vectors Point</text><text x="0" y="55" fill="#000000" font-size="5px" font-weight="bold" font-family="'Helvetica Neue', Helvetica, Arial-Unicode, Arial, Sans-serif">from the Noun Project</text></svg>