<svg xmlns="http://www.w3.org/2000/svg" xmlns:xlink="http://www.w3.org/1999/xlink" xml:space="preserve" version="1.1" style="shape-rendering:geometricPrecision;text-rendering:geometricPrecision;image-rendering:optimizeQuality;" viewBox="0 0 846.66 1058.325" x="0px" y="0px" fill-rule="evenodd" clip-rule="evenodd"><defs><style type="text/css">
   
    .fil0 {fill:black}
   
  </style></defs><g><path class="fil0" d="M749.32 61.03l-700.64 0 0 95.74 700.64 0 0 -95.74zm48.66 142.57l-237.37 73.45 0 351.6c-21.54,-5.53 -47.14,-5.46 -73.18,1.52 -60.01,16.08 -99.66,62.69 -88.56,104.11 11.1,41.43 68.74,61.97 128.75,45.89 50.04,-13.4 85.92,-48.05 90.02,-83.21l-0.37 -306.65 180.71 -54.91 0 -131.8zm-350.28 296.96l-399.02 0 0 95.74 399.02 0 0 -95.74zm0 -219.76l-399.02 0 0 95.74 399.02 0 0 -95.74z"/></g><text x="0" y="861.66" fill="#000000" font-size="5px" font-weight="bold" font-family="'Helvetica Neue', Helvetica, Arial-Unicode, Arial, Sans-serif">Created by Ikipoh</text><text x="0" y="866.66" fill="#000000" font-size="5px" font-weight="bold" font-family="'Helvetica Neue', Helvetica, Arial-Unicode, Arial, Sans-serif">from the Noun Project</text></svg>