<svg xmlns="http://www.w3.org/2000/svg" xmlns:xlink="http://www.w3.org/1999/xlink" viewBox="0 0 20 23.75" version="1.1" x="0px" y="0px"><title>recent</title><desc>Created with Sketch.</desc><g stroke="none" stroke-width="1" fill="none" fill-rule="evenodd"><g fill-rule="nonzero" fill="#000000"><path d="M11.0022337,9.00223374 L13.0024263,9.00223374 C13.5546047,9.00223374 14.0022337,9.44609857 14.0022337,10.0022337 C14.0022337,10.5545185 13.5585171,11.0022337 13.0024263,11.0022337 L10.0020412,11.0022337 C9.72747809,11.0022337 9.47876414,10.8924909 9.29807713,10.7137709 C9.11413655,10.5289941 9.00223374,10.2813258 9.00223374,10.0114558 L9.00223374,5.99301171 C9.00223374,5.44582015 9.44609857,5.00223374 10.0022337,5.00223374 C10.5545185,5.00223374 11.0022337,5.45320892 11.0022337,5.99301171 L11.0022337,9.00223374 Z M2.09999508,5.78255709 C3.09756063,3.18476997 5.2821368,1.08422771 8.17569435,0.308901307 C12.9768893,-0.977574997 17.9119219,1.87166741 19.1983982,6.67286234 C20.4848745,11.4740573 17.6356321,16.4090899 12.8344372,17.6955662 C8.03324223,18.9820425 3.09820962,16.1328001 1.81173332,11.3316051 L3.74358497,10.8139671 C4.74417765,14.5482298 8.58253635,16.7643072 12.3167991,15.7637145 C16.0510618,14.7631218 18.2671392,10.9247632 17.2665465,7.19050043 C16.2659539,3.4562377 12.4275952,1.24016028 8.69333244,2.24075296 C6.33215037,2.87342979 4.57794776,4.64066225 3.86009836,6.79875319 L6.12372436,8.10565827 L1.29409523,9.3997535 L1.687539e-14,4.57012437 L2.09999508,5.78255709 Z"/></g></g><text x="0" y="34" fill="#000000" font-size="5px" font-weight="bold" font-family="'Helvetica Neue', Helvetica, Arial-Unicode, Arial, Sans-serif">Created by Тимур Минвалеев</text><text x="0" y="39" fill="#000000" font-size="5px" font-weight="bold" font-family="'Helvetica Neue', Helvetica, Arial-Unicode, Arial, Sans-serif">from the Noun Project</text></svg>